<svg width="140" height="140" viewBox="0 0 140 140" fill="none" xmlns="http://www.w3.org/2000/svg">
<path d="M121.917 31.0917C121.917 31.0917 121.742 30.5083 121.683 30.2167C120.538 26.5323 118.245 23.3107 115.138 21.0228C112.032 18.7348 108.275 17.5004 104.417 17.5H35.5833C25.6083 17.5 17.5 25.6083 17.5 35.5833V104.358C17.5 114.333 25.6083 122.442 35.5833 122.442H66.9083C75.8917 122.442 83.1833 115.15 83.1833 106.167V75.1917L103.017 100.742C109.375 108.908 122.442 104.417 122.442 94.0917V35.5833C122.442 34.65 122.383 33.7167 122.208 32.8417L121.858 31.0917H121.917ZM108.033 35.6417V83.5917L88.2 58.0417C86.8 56.2333 85.1083 55.0667 83.3 54.425C76.7667 52.0917 68.775 56.6417 68.775 64.6917V106.225C68.775 107.217 68.4833 108.033 67.4917 108.033H35.6417C33.6583 108.033 32.025 106.4 32.025 104.417V35.5833C32.025 33.6 33.6583 31.9667 35.6417 31.9667H106.225C107.742 31.9667 108.033 32.9583 108.033 34.3V35.5833V35.6417Z" fill="#000001"/>
</svg>
